<svg xmlns="http://www.w3.org/2000/svg" width="163" height="169"
     viewBox="0 0 163 169">
    <defs>
        <filter id="Rectangle_7" x="0" y="0" width="163" height="169" filterUnits="userSpaceOnUse">
            <feOffset dy="3" input="SourceAlpha"/>
            <feGaussianBlur stdDeviation="3" result="blur"/>
            <feFlood flood-opacity="0.161"/>
            <feComposite operator="in" in2="blur"/>
            <feComposite in="SourceGraphic"/>
        </filter>
    </defs>
    <g id="Component_2_2" data-name="Component 2 – 2" transform="translate(9 6)">
        <g transform="matrix(1, 0, 0, 1, -9, -6)" filter="url(#Rectangle_7)">
            <rect id="Rectangle_7-2" data-name="Rectangle 7" width="145" height="151" transform="translate(9 6)"
                  fill="#fff"/>
        </g>
        <g id="Icon_feather-book-open" data-name="Icon feather-book-open" transform="translate(33.187 38.318)">
            <path id="Path_7" data-name="Path 7"
                  d="M3,4.5H24.788A14.525,14.525,0,0,1,39.313,19.025V69.864A10.894,10.894,0,0,0,28.419,58.97H3Z"
                  transform="translate(0)" fill="none" stroke="rgba(0,0,0,0.58)" stroke-linecap="round"
                  stroke-linejoin="round" stroke-width="3"/>
            <path id="Path_8" data-name="Path 8"
                  d="M54.313,4.5H32.525A14.525,14.525,0,0,0,18,19.025V69.864A10.894,10.894,0,0,1,28.894,58.97H54.313Z"
                  transform="translate(21.313)" fill="none" stroke="rgba(0,0,0,0.58)" stroke-linecap="round"
                  stroke-linejoin="round" stroke-width="3"/>
        </g>
    </g>
</svg>
